Run_20002
nRows=4
nColumns=164

# SIMM Motion File Header:
name Run_20002
datacolumns 164
datarows 4
otherdata 1
range 0.17000000 0.20000000
endheader
time	pelvis_tilt	pelvis_list	pelvis_rotation	pelvis_tx	pelvis_ty	pelvis_tz	hip_flexion_r	hip_adduction_r	hip_rotation_r	knee_angle_r	ankle_angle_r	hip_flexion_l	hip_adduction_l	hip_rotation_l	knee_angle_l	ankle_angle_l	lumbar_extension	lumbar_bending	lumbar_rotation	arm_flex_r	arm_add_r	arm_rot_r	elbow_flex_r	pro_sup_r	arm_flex_l	arm_add_l	arm_rot_l	elbow_flex_l	pro_sup_l	subtalar_angle_r	mtp_angle_r	subtalar_angle_l	mtp_angle_l	wrist_flex_r	wrist_dev_r	wrist_flex_l	wrist_dev_l	LASI_tx	LASI_ty	LASI_tz	RASI_tx	RASI_ty	RASI_tz	LPSI_tx	LPSI_ty	LPSI_tz	RPSI_tx	RPSI_ty	RPSI_tz	RTH1_tx	RTH1_ty	RTH1_tz	RTH2_tx	RTH2_ty	RTH2_tz	RTH3_tx	RTH3_ty	RTH3_tz	LTH1_tx	LTH1_ty	LTH1_tz	LTH2_tx	LTH2_ty	LTH2_tz	LTH3_tx	LTH3_ty	LTH3_tz	RTB1_tx	RTB1_ty	RTB1_tz	RTB2_tx	RTB2_ty	RTB2_tz	RTB3_tx	RTB3_ty	RTB3_tz	LTB1_tx	LTB1_ty	LTB1_tz	LTB2_tx	LTB2_ty	LTB2_tz	LTB3_tx	LTB3_ty	LTB3_tz	RCAL_tx	RCAL_ty	RCAL_tz	RTOE_tx	RTOE_ty	RTOE_tz	RMT5_tx	RMT5_ty	RMT5_tz	LCAL_tx	LCAL_ty	LCAL_tz	LTOE_tx	LTOE_ty	LTOE_tz	LMT5_tx	LMT5_ty	LMT5_tz	LACR_tx	LACR_ty	LACR_tz	RACR_tx	RACR_ty	RACR_tz	CLAV_tx	CLAV_ty	CLAV_tz	C7_tx	C7_ty	C7_tz	RUA1_tx	RUA1_ty	RUA1_tz	RUA2_tx	RUA2_ty	RUA2_tz	RUA3_tx	RUA3_ty	RUA3_tz	RLEL_tx	RLEL_ty	RLEL_tz	RMEL_tx	RMEL_ty	RMEL_tz	LUA1_tx	LUA1_ty	LUA1_tz	LUA2_tx	LUA2_ty	LUA2_tz	LUA3_tx	LUA3_ty	LUA3_tz	LLEL_tx	LLEL_ty	LLEL_tz	LMEL_tx	LMEL_ty	LMEL_tz	RFAsuperior_tx	RFAsuperior_ty	RFAsuperior_tz	RFAradius_tx	RFAradius_ty	RFAradius_tz	RFAulna_tx	RFAulna_ty	RFAulna_tz	LFAsuperior_tx	LFAsuperior_ty	LFAsuperior_tz	LFAradius_tx	LFAradius_ty	LFAradius_tz	LFAulna_tx	LFAulna_ty	LFAulna_tz
      0.17000000	      2.67657775	     -1.53739844	     -0.72251215	      0.70265888	      0.99370591	     -0.31392517	     -1.89607723	      7.04240440	      6.47915062	    -27.13324571	     19.42083158	     24.65645745	      1.57287215	      0.67331711	    -71.33297332	      0.07159173	    -17.64661777	      0.71383218	      5.80663986	    -11.32405486	    -24.15731288	     -8.76221551	     97.00513232	     70.13274278	    -19.24369274	    -16.39206794	     -1.09584140	     83.70839409	    103.01475930	      0.00000000	      0.00000000	      0.00000000	      0.00000000	      0.00000000	      0.00000000	      0.00000000	      0.00000000	      0.70862049	      1.01275973	     -0.45020625	      0.70979772	      1.00913703	     -0.18221685	      0.53425283	      1.02696053	     -0.37148373	      0.53232968	      1.02830079	     -0.27097936	      0.61014313	      0.82267034	     -0.14411524	      0.68784212	      0.71793199	     -0.16475755	      0.60801084	      0.60051855	     -0.19429576	      0.67851460	      0.81211895	     -0.48802990	      0.79393884	      0.71663608	     -0.47425637	      0.78465851	      0.59515483	     -0.45422182	      0.61951770	      0.35483618	     -0.27691652	      0.57504380	      0.30773348	     -0.21283574	      0.53354830	      0.20948381	     -0.27738645	      0.77286859	      0.38978804	     -0.38652515	      0.67851062	      0.36460916	     -0.44714430	      0.65559859	      0.28544677	     -0.38342764	      0.36923056	      0.11669130	     -0.28005342	      0.59024047	      0.06624282	     -0.29465436	      0.53876128	      0.05692099	     -0.20567111	      0.47679685	      0.26476641	     -0.36961609	      0.63090106	      0.09626595	     -0.36601587	      0.57411037	      0.11481998	     -0.45324877	      0.70459438	      1.47927434	     -0.48712932	      0.72381206	      1.48810665	     -0.15220212	      0.76641272	      1.41836194	     -0.29220218	      0.64944708	      1.50782895	     -0.31479653	      0.67834604	      1.41315373	     -0.06569988	      0.60756193	      1.34127303	     -0.07656826	      0.64569665	      1.29175237	     -0.02969266	      0.61643014	      1.19037373	      0.00722354	      0.58616173	      1.17279024	     -0.06632492	      0.63279620	      1.40519406	     -0.55843853	      0.56669336	      1.33878846	     -0.51531581	      0.54829912	      1.28322878	     -0.57408049	      0.52435246	      1.20291200	     -0.60389733	      0.50377708	      1.19891492	     -0.52932273	      0.71878584	      1.15584254	     -0.00197379	      0.85667735	      1.11239826	     -0.06152807	      0.82632786	      1.04952129	     -0.04372717	      0.61260803	      1.13126189	     -0.60049798	      0.72310071	      1.03041543	     -0.52872919	      0.68185841	      0.98908031	     -0.57085330
      0.18000000	      2.38707338	     -0.75657840	     -0.88359867	      0.70411016	      0.99902079	     -0.31455900	     -4.02684610	      5.94575758	      6.79943269	    -24.74005918	     17.53275141	     25.21874284	      2.54655102	      0.54412647	    -67.54983991	      0.61199604	    -17.10190224	     -0.22626837	      6.35671641	    -11.57341965	    -24.41709089	     -9.35180949	     98.29302805	     69.94586203	    -21.60176428	    -16.93293541	     -1.65776475	     85.34196673	    101.83214503	      0.00000000	      0.00000000	      0.00000000	      0.00000000	      0.00000000	      0.00000000	      0.00000000	      0.00000000	      0.70919111	      1.01912286	     -0.45037923	      0.70984344	      1.01271602	     -0.18285343	      0.53585336	      1.03341073	     -0.37233814	      0.53429394	      1.03389771	     -0.27140738	      0.60645043	      0.82800276	     -0.14487366	      0.68056471	      0.72099997	     -0.16594648	      0.59646192	      0.60612216	     -0.19449689	      0.68198369	      0.81936107	     -0.48923057	      0.79780002	      0.72526290	     -0.47440623	      0.78947086	      0.60340229	     -0.45463827	      0.60154372	      0.35897589	     -0.27651196	      0.55795794	      0.31268635	     -0.21204767	      0.51557447	      0.21381562	     -0.27705316	      0.78504677	      0.39286862	     -0.38438321	      0.69225529	      0.36232437	     -0.44569313	      0.67543922	      0.28204351	     -0.38213841	      0.35192334	      0.12301313	     -0.27943562	      0.57126837	      0.06652800	     -0.29469471	      0.51941697	      0.05729393	     -0.20592306	      0.49810001	      0.24713777	     -0.36770867	      0.66523787	      0.09194568	     -0.36522358	      0.60676813	      0.10570445	     -0.45185209	      0.70295376	      1.48577783	     -0.48769847	      0.72573840	      1.49489490	     -0.15387349	      0.76735013	      1.42487097	     -0.29420162	      0.64984087	      1.51322954	     -0.31543704	      0.68080400	      1.42044979	     -0.06661368	      0.61021670	      1.34869948	     -0.07586239	      0.64943540	      1.29917492	     -0.02939654	      0.62082228	      1.19778235	      0.00811676	      0.59081190	      1.18014762	     -0.06537616	      0.62841467	      1.41491167	     -0.55862714	      0.56169014	      1.35043366	     -0.51545069	      0.54093119	      1.29569976	     -0.57469949	      0.51388118	      1.21643821	     -0.60398467	      0.49498585	      1.21262523	     -0.52895390	      0.72366213	      1.16544283	     -0.00193890	      0.86184108	      1.12518922	     -0.06299719	      0.83320636	      1.06164710	     -0.04500438	      0.60111664	      1.14401787	     -0.60209937	      0.71139104	      1.04154348	     -0.53292479	      0.66848848	      1.00043274	     -0.57355159
      0.19000000	      2.03442728	      0.04975494	     -1.09142154	      0.70580017	      1.00424453	     -0.31499898	     -5.95676850	      4.79282135	      6.96299292	    -22.54401042	     15.30167349	     25.62886742	      3.48031578	      0.39395890	    -63.36735138	      0.88463041	    -16.46426643	     -1.21607086	      6.93640142	    -11.92822984	    -24.62321523	     -9.91360916	     99.54091429	     69.79045793	    -23.93739649	    -17.49200450	     -2.20569357	     86.91024981	    100.51035247	      0.00000000	      0.00000000	      0.00000000	      0.00000000	      0.00000000	      0.00000000	      0.00000000	      0.00000000	      0.71013202	      1.02571890	     -0.45043732	      0.71028414	      1.01628923	     -0.18340774	      0.53798580	      1.04009924	     -0.37305586	      0.53632269	      1.03976693	     -0.27196693	      0.60285871	      0.83339202	     -0.14535854	      0.67363102	      0.72445802	     -0.16692224	      0.58549029	      0.61214386	     -0.19430534	      0.68514179	      0.82645828	     -0.48985850	      0.80125147	      0.73367949	     -0.47449322	      0.79363010	      0.61144514	     -0.45494255	      0.58471557	      0.36369471	     -0.27554670	      0.54136389	      0.31816444	     -0.21093821	      0.49845059	      0.21880116	     -0.27634050	      0.79641026	      0.39618057	     -0.38265370	      0.70580789	      0.35952474	     -0.44434857	      0.69529994	      0.27826289	     -0.38081139	      0.33536812	      0.13052142	     -0.27871793	      0.55228090	      0.06666267	     -0.29468625	      0.50023869	      0.05799686	     -0.20606130	      0.52071019	      0.22942604	     -0.36564366	      0.70005265	      0.08797986	     -0.36435139	      0.64003217	      0.09699854	     -0.45042141	      0.70149603	      1.49235810	     -0.48824739	      0.72770440	      1.50161147	     -0.15557222	      0.76831336	      1.43148020	     -0.29623476	      0.65025858	      1.51872561	     -0.31606978	      0.68342891	      1.42772146	     -0.06756384	      0.61289782	      1.35621082	     -0.07523247	      0.65301594	      1.30667040	     -0.02917008	      0.62492130	      1.20533030	      0.00898248	      0.59464128	      1.18752945	     -0.06441883	      0.62453319	      1.42474970	     -0.55869930	      0.55703439	      1.36229217	     -0.51558359	      0.53414750	      1.30820165	     -0.57525944	      0.50416524	      1.22996264	     -0.60389259	      0.48696282	      1.22634134	     -0.52840366	      0.72813360	      1.17502763	     -0.00194681	      0.86643430	      1.13773071	     -0.06454145	      0.83939993	      1.07356323	     -0.04632943	      0.59011888	      1.15665941	     -0.60353471	      0.70038927	      1.05274446	     -0.53677361	      0.65585971	      1.01184152	     -0.57575904
      0.20000000	      1.63235851	      0.82042037	     -1.33723091	      0.70775254	      1.00949281	     -0.31522274	     -7.62923891	      3.65183113	      6.93476229	    -20.66759222	     12.61523703	     25.84347463	      4.29963952	      0.22772830	    -58.72338853	      1.01146124	    -15.76263943	     -2.17954569	      7.52767490	    -12.39602974	    -24.75504563	    -10.42078479	    100.72184569	     69.74141028	    -26.19784928	    -18.00442514	     -2.76762172	     88.37995208	     99.14930769	      0.00000000	      0.00000000	      0.00000000	      0.00000000	      0.00000000	      0.00000000	      0.00000000	      0.00000000	      0.71154278	      1.03251471	     -0.45036069	      0.71129157	      1.01998470	     -0.18386675	      0.54066633	      1.04698403	     -0.37362954	      0.53841159	      1.04596143	     -0.27272250	      0.59946514	      0.83895200	     -0.14559091	      0.66724713	      0.72843809	     -0.16750103	      0.57544924	      0.61870135	     -0.19357938	      0.68792208	      0.83359971	     -0.48988784	      0.80407371	      0.74173823	     -0.47445430	      0.79666410	      0.61905533	     -0.45503242	      0.56956540	      0.36920946	     -0.27381221	      0.52559479	      0.32438689	     -0.20934871	      0.48274245	      0.22469123	     -0.27502348	      0.80652362	      0.39977346	     -0.38159160	      0.71903375	      0.35597904	     -0.44316287	      0.71514976	      0.27407152	     -0.37945489	      0.31999114	      0.13955282	     -0.27783138	      0.53324273	      0.06641702	     -0.29467376	      0.48136652	      0.05914635	     -0.20590129	      0.54516939	      0.21161720	     -0.36326858	      0.73545836	      0.08479515	     -0.36333662	      0.67438463	      0.08943310	     -0.44892146	      0.70037785	      1.49898738	     -0.48880618	      0.72970808	      1.50818441	     -0.15728903	      0.76931017	      1.43816081	     -0.29826780	      0.65071724	      1.52430534	     -0.31667831	      0.68625599	      1.43489800	     -0.06856199	      0.61561974	      1.36378675	     -0.07474018	      0.65633296	      1.31419440	     -0.02907731	      0.62852789	      1.21301787	      0.00976412	      0.59737090	      1.19487055	     -0.06349138	      0.62146634	      1.43466917	     -0.55866356	      0.55308335	      1.37433747	     -0.51567688	      0.52826760	      1.32066445	     -0.57561238	      0.49555483	      1.24337676	     -0.60343916	      0.48004896	      1.23996814	     -0.52747201	      0.73199124	      1.18451813	     -0.00202568	      0.87018882	      1.14979371	     -0.06618172	      0.84461460	      1.08507059	     -0.04768299	      0.57990806	      1.16902200	     -0.60469091	      0.69051205	      1.06392770	     -0.54011651	      0.64442235	      1.02326900	     -0.57738526
